<?xml version="1.0" standalone="no"?>
<!DOCTYPE svg PUBLIC "-//W3C//DTD SVG 20010904//EN"
 "http://www.w3.org/TR/2001/REC-SVG-20010904/DTD/svg10.dtd">
<svg version="1.0" xmlns="http://www.w3.org/2000/svg"
 width="700.000000pt" height="700.000000pt" viewBox="0 0 700.000000 700.000000"
 preserveAspectRatio="xMidYMid meet">
<metadata>
Created by potrace 1.14, written by Peter Selinger 2001-2017
</metadata>
<g transform="translate(0.000000,700.000000) scale(0.100000,-0.100000)"
fill="#000000" stroke="none">
<path d="M625 6985 c-239 -45 -433 -192 -540 -410 -88 -178 -80 143 -80 -3075
0 -3218 -8 -2897 80 -3075 77 -158 183 -263 340 -341 178 -87 -143 -79 3075
-79 3218 0 2897 -8 3075 79 157 78 263 183 340 341 88 178 80 -143 80 3075 0
3218 8 2897 -79 3075 -78 158 -183 263 -341 340 -178 89 149 80 -3045 82
-2315 1 -2848 -1 -2905 -12z m2511 -1272 c11 -7 26 -23 32 -36 7 -12 106 -298
221 -636 116 -337 211 -615 213 -617 2 -2 114 266 248 594 134 328 254 617
266 643 36 74 117 93 174 42 28 -25 100 -232 729 -2073 384 -1125 709 -2077
721 -2116 22 -67 22 -72 6 -106 -35 -73 -129 -88 -178 -30 -15 19 -243 673
-688 1975 -366 1071 -667 1947 -670 1947 -3 0 -116 -271 -252 -602 l-246 -601
450 -1320 c438 -1284 450 -1320 439 -1359 -23 -76 -122 -102 -177 -46 -17 16
-75 173 -199 538 -97 283 -187 548 -202 588 l-26 72 -456 0 -456 0 -240 -588
c-160 -392 -248 -594 -264 -610 -18 -16 -36 -22 -71 -22 -42 0 -52 4 -79 35
-19 22 -31 47 -31 64 0 15 241 616 536 1335 294 720 534 1318 532 1330 -6 42
-403 1195 -409 1188 -4 -4 -361 -873 -794 -1932 -433 -1059 -797 -1943 -809
-1965 -36 -66 -115 -77 -172 -24 -55 51 -101 -72 796 2120 970 2371 896 2194
924 2212 42 28 89 28 132 0z"/>
<path d="M3577 3768 c-3 -7 -93 -228 -201 -491 -108 -263 -196 -480 -196 -482
0 -3 167 -5 370 -5 204 0 370 3 370 6 0 8 -331 978 -335 982 -1 2 -5 -3 -8
-10z"/>
</g>
</svg>
